<svg xmlns="http://www.w3.org/2000/svg" viewBox="0 0 98.55 134.48"><defs><style>.cls-1{fill:#1d1d1b;}</style></defs><g id="Capa_2" data-name="Capa 2"><g id="Logos"><g id="LOGO_SIMPLE" data-name="LOGO SIMPLE"><path class="cls-1" d="M98.42,93.46A33.17,33.17,0,0,0,84.63,69.93c-8.23-5.81-18.31-6.61-20.91-6.75-7.85-.45-11.86,1.6-16.51-1.65-2.8-2-5.75-5.78-5.3-9.81a6.61,6.61,0,0,1,2.42-4.62c1.73-1.24,3.82-1,6.2-.6,6.77,1.21,8.5,2.75,11.88,3.34,5.74,1,13.37-1.21,17.16-6.86a15.91,15.91,0,0,0,2.28-10.71,15.22,15.22,0,0,0-1.69-4.94,3,3,0,0,1-5.74-.95,3,3,0,0,1,2.91-3h.18a21.56,21.56,0,0,0-6-5.06c.39-.39,1-1.12,2.23-2.56a21.45,21.45,0,0,0,1.35-1.79,12.62,12.62,0,0,0,.84-1.46c.11-.21,1.27-2.45,1-2.64-.13-.09-.53.37-1.44,1.17S74,12.22,73.54,12.56c.12-.44.31-1.12.55-2,.35-1.24.51-1.71.39-1.76s-.3.17-1.65,1.79c-.63.75-.84,1-1,1s0-.72.16-2c.13-1.15.22-2,0-2s-.88,1.64-2.51,3.91a17.05,17.05,0,0,1-2,2.48c-.51.5-1,1-1.5,1.52l-.64.65L64.72,16a25.87,25.87,0,0,0,1.33-2.25c2.91-5.49,3.5-11,3.07-11.08s-2,5.09-3,4.89-.76-6.94-1.39-7-1.14,6.5-2.36,6.56S59.82-.1,59.28,0c-.33.06.31,2.75-.28,6.52a29.67,29.67,0,0,1-1.73,6c-.52,1.44-1.05,2.68-1.52,3.71l-.56.09a98,98,0,0,0-10.43,2.06l-6.95-5c-3.4-3-4.66-6.08-5.07-5.84-.67.38,3.29,8.24,1.82,9.3s-6.73-4.67-7.38-4.09,4.71,6.49,3.57,7.74S24.26,18,23.86,18.53s3.31,3.66,8.83,6.46c-1.13.94-2.06,1.81-2.8,2.51a41,41,0,0,0-10.6,15.21c-1.16,3-3.74,9.46-2.57,17.31.09.63,2.46,15.71,14.12,21.83C41.2,87.29,53.78,83,65.59,87.64a13.87,13.87,0,0,1,5.54,3.77,14.6,14.6,0,0,1,3.42,10.19c-.94,9-18.72,17.6-34.59,16.3a43.39,43.39,0,0,1-29.67-16C4.87,95,2.46,86.83.84,87.33-.4,87.72,0,92.87.51,96.27,3.37,113.21,18.58,124,20.26,125.13c20.13,13.81,53.17,12.64,68.95-5.57C91.07,117.42,99.71,107.45,98.42,93.46ZM60.5,35.84a4.1,4.1,0,0,1-4.37-3.79,4.32,4.32,0,0,1,8.59-.16A4.09,4.09,0,0,1,60.5,35.84Z"/></g></g></g></svg>